<?xml version="1.0" encoding="UTF-8" standalone="yes"?>
<svg xmlns="http://www.w3.org/2000/svg" xmlns:xlink="http://www.w3.org/1999/xlink" width="240.000489mm" height="140.000285mm" version="1.1" viewBox="-1.465042 -7.299316 1247.244141 727.559082">
  <!--
	Exported with Concepts: Smarter Sketching
	Version: 642
	iOS Version: 12.1
	https://concepts.tophatch.com/
	-->
  <title>Red Arrow pointing to the left</title>
  <desc>Drawing exported from Concepts: Smarter Sketching</desc>
  <g id="Red_arrow_to_the_left" opacity="1.000">
    <path id="STROKE_2D9E857A-1F99-45B3-956F-E94A95F55A3D" opacity="1.000" fill="none" stroke="#fc0000" stroke-width="2.210" stroke-opacity="1.000" stroke-linecap="round" stroke-linejoin="round" d="M 13.551 22.377 Q 13.551 22.301 13.551 22.312 Q 13.551 22.119 13.551 22.178 Q 13.523 22.011 13.528 22.057 Q 13.528 22.056 13.509 21.973 Q 13.490 21.890 13.481 21.901 Q 13.472 21.913 13.505 21.901 Q 13.538 21.888 13.260 21.277 Q 12.982 20.666 12.786 20.332 Q 12.590 19.998 12.478 19.825 Q 12.367 19.651 12.071 19.227 Q 11.775 18.802 11.626 18.620 Q 11.477 18.439 11.276 18.198 Q 11.075 17.957 11.003 17.864 Q 10.932 17.771 10.888 17.711 Q 10.844 17.651 10.800 17.589 Q 10.756 17.528 10.728 17.487 Q 10.700 17.447 10.667 17.399 Q 10.633 17.352 10.650 17.365 Q 10.668 17.378 10.387 17.057 Q 10.106 16.736 9.885 16.498 Q 9.664 16.260 9.508 16.069 Q 9.352 15.877 9.258 15.761 Q 9.163 15.644 9.011 15.482 Q 8.859 15.320 8.760 15.204 Q 8.661 15.087 8.382 14.842 Q 8.103 14.597 7.907 14.444 Q 7.711 14.291 7.593 14.200 Q 7.476 14.110 7.441 14.087 Q 7.406 14.063 7.355 14.028 Q 7.304 13.993 7.255 13.959 Q 7.206 13.924 7.161 13.895 Q 7.116 13.867 7.097 13.848 Q 7.078 13.828 6.584 13.474 Q 6.091 13.119 5.814 12.932 Q 5.537 12.745 5.381 12.665 Q 5.225 12.586 5.065 12.518 Q 4.906 12.450 4.760 12.392 Q 4.614 12.335 4.504 12.292 Q 4.394 12.250 4.315 12.218 Q 4.236 12.187 4.160 12.152 Q 4.084 12.116 4.030 12.093 Q 3.976 12.070 3.891 12.031 Q 3.805 11.991 3.800 11.988 Q 3.795 11.985 3.799 11.991 Q 3.803 11.996 3.722 11.946 Q 3.640 11.896 3.603 11.869 Q 3.566 11.842 3.550 11.831 Q 3.535 11.820 3.562 11.838 Q 3.590 11.855 3.438 11.747 Q 3.286 11.638 3.195 11.575 Q 3.105 11.512 3.070 11.487 Q 3.036 11.462 3.027 11.462 Q 3.019 11.463 3.037 11.458 Q 3.055 11.453 2.835 11.350 Q 2.614 11.248 2.310 11.157 Q 2.409 11.157 2.394 11.157 Q 2.298 11.115 2.631 11.221 L 2.631 11.225 Q 2.636 11.225 2.682 11.227 Q 2.728 11.229 2.762 11.233 "></path>
    <path id="STROKE_51BF58AE-3C2F-4BE4-8332-E8376BB79E75" opacity="1.000" fill="none" stroke="#fc0000" stroke-width="2.210" stroke-opacity="1.000" stroke-linecap="round" stroke-linejoin="round" d="M 13.955 -0.567 Q 13.955 -0.492 13.955 -0.503 Q 13.955 -0.310 13.955 -0.369 Q 13.927 -0.202 13.932 -0.248 Q 13.932 -0.247 13.913 -0.164 Q 13.894 -0.081 13.885 -0.092 Q 13.876 -0.104 13.909 -0.091 Q 13.943 -0.079 13.665 0.532 Q 13.386 1.143 13.190 1.477 Q 12.995 1.811 12.883 1.985 Q 12.772 2.158 12.476 2.583 Q 12.181 3.008 12.032 3.190 Q 11.882 3.371 11.682 3.612 Q 11.481 3.853 11.409 3.946 Q 11.337 4.039 11.294 4.099 Q 11.250 4.159 11.206 4.221 Q 11.162 4.283 11.134 4.323 Q 11.106 4.364 11.072 4.411 Q 11.039 4.459 11.056 4.446 Q 11.074 4.432 10.793 4.753 Q 10.512 5.074 10.291 5.313 Q 10.070 5.551 9.914 5.742 Q 9.759 5.934 9.664 6.050 Q 9.570 6.167 9.418 6.329 Q 9.266 6.491 9.167 6.607 Q 9.068 6.724 8.789 6.969 Q 8.510 7.214 8.314 7.368 Q 8.118 7.521 8.001 7.611 Q 7.883 7.701 7.848 7.725 Q 7.813 7.749 7.762 7.783 Q 7.711 7.818 7.662 7.853 Q 7.613 7.888 7.568 7.916 Q 7.524 7.945 7.504 7.964 Q 7.485 7.983 6.992 8.338 Q 6.499 8.693 6.222 8.880 Q 5.945 9.068 5.789 9.147 Q 5.633 9.227 5.473 9.295 Q 5.314 9.363 5.168 9.420 Q 5.022 9.478 4.912 9.521 Q 4.802 9.563 4.723 9.595 Q 4.644 9.626 4.568 9.661 Q 4.492 9.697 4.438 9.720 Q 4.384 9.743 4.299 9.782 Q 4.213 9.822 4.208 9.825 Q 4.203 9.828 4.207 9.822 Q 4.211 9.817 4.130 9.867 Q 4.049 9.917 4.011 9.944 Q 3.974 9.971 3.959 9.982 Q 3.943 9.993 3.971 9.976 Q 3.998 9.958 3.846 10.066 Q 3.694 10.175 3.604 10.238 Q 3.513 10.302 3.479 10.327 Q 3.444 10.352 3.435 10.351 Q 3.427 10.350 3.445 10.355 Q 3.464 10.360 3.243 10.463 Q 3.023 10.565 2.718 10.657 Q 2.817 10.657 2.802 10.657 Q 2.706 10.698 3.040 10.592 L 3.040 10.588 Q 3.045 10.588 3.090 10.586 Q 3.136 10.584 3.171 10.580 "></path>
    <path id="STROKE_E0291D40-5096-44A5-BDA3-6909B67E785A" opacity="1.000" fill="none" stroke="#fc0000" stroke-width="2.710" stroke-opacity="1.000" stroke-linecap="round" stroke-linejoin="round" d="M 4.697 11.074 L 49.714 10.834 "></path>
  </g>
</svg>
